<svg xmlns="http://www.w3.org/2000/svg" id="Layer_1" version="1.1" viewBox="206.52 394.1 642 161.04" width="642" height="161.04">
  <!-- Generator: Adobe Illustrator 29.5.1, SVG Export Plug-In . SVG Version: 2.1.0 Build 141)  -->
  <defs>
    <style>
      .st0 {
        fill: #d55d27;
      }
    </style>
  </defs>
  <g>
    <path class="st0" d="M306.62,490.15c.31.3.46,6.56-.46,6.4-.61.3-.61.61-.46,1.22.31,1.52,0,3.51-.61,3.81-.61.15-1.37,1.68-1.83.91.15-.15.15-.46-.15-.76q-.31-.3.15-.15c.31,0,.61-.3.91-.91,1.52-2.29-1.22,1.37-1.37-.3,0-.15.31-.31.46-.15.31.31,1.22-.76.91-1.22-.61.3-2.29,1.07-4.42,1.07-1.37.31-.91-1.07-1.22-.61-.15.46-1.52,0-1.83-.15.61.61,1.68,1.83,2.59,1.83q.76,0,.31.91-.61.91-2.13.76c-1.83-.46-3.51-.61-5.03-1.22-.46-.15-.92.61-1.52.15-1.22-.76-2.59-.46-3.35-1.22-.15-.31-.46-.46-.76-.31-.46.15-1.83-1.07-2.44-1.07-4.57-2.44-9.76-5.95-14.33-9.91-1.22-.15-1.07-1.68-2.13-1.68-1.07-.61-5.03-4.12-5.49-5.18-.15-.76-1.22.15-1.83-.91-.31-.46-.76-.76-.76-.76-.76,0-2.9-2.59-2.74-3.2.15-.15,0-.31-.15-.15-.46.3-1.52-.46-1.52-1.22,0-.46-.15-.61-.3-.46-1.68.15-4.73-5.95-6.4-7.01-.46,0-2.29-2.9-3.05-2.9-.3,0-.61-.46-.76-.61-1.68-2.44-3.35-4.42-5.34-6.86-.61-.76-1.22-1.52-1.37-1.52-.31-.3.15-1.68-.61-1.98-.91-.15-.15-1.37-.76-1.07-1.22-.76-3.66-2.74-3.51-4.57,0-.76,0-.91-.46-.76-.46.61-3.51-3.35-3.05-4.27-.61-.91-1.37-.61-2.44-2.9-1.98-3.2-.15-1.83-1.68-3.66-.61-.76-1.52-.76-.91-.31.31,3.96.46,12.66.15,16.77-.3,3.81.46,4.73-.61,7.32.31,0,.46.46.61,1.37-.15,1.07.91,2.9.15,3.35-1.07,0,.46,1.83.46,2.44-.31.61-.31,4.27,0,4.88.15.46.15.76-.15,1.07-.76,0-.3,3.66-.76,3.81-.46.15-.46.3,0,.61.61.61.61,2.9,0,4.12-.46,1.07.46-.15.3.61-.3.61.61.76.3,1.22-.3.46-.15,5.18-.91,5.34-1.22,1.07.46.15.31,1.22.3.46-1.52,1.07-1.22.46.15-.3-.15-.15-.91.15-1.07.61-1.98,1.98-1.07,1.68,0,0,3.51-1.22,2.59-.46-.31.61-1.83.46-2.44.92-.76.46,1.52,0,1.83-.15-.3.3-2.44,1.52-1.37,1.37.46.31,3.66-1.98,2.9-.91,0,.15,0,.3.15.3.76,0,0,.46-.91.61-2.44-.3-1.07,1.52-1.52,1.98,0-.61-1.07-.76-.92-1.37-.3-.3-2.13.91-2.9.46-1.68-.76-.46,2.13-1.07,3.05-.76.76.61,1.98,1.22,1.22.61-.61.61-.46.61.76-.15,1.22-.61,2.13-.61,1.07-1.07-3.66-1.07,1.83-2.59,1.52,0,0-.3-.46-.76-.76-.76-.61-.61-2.44-1.68-1.22-3.2,2.44,0-3.66-3.2-1.98-1.68.92-3.2-1.22-3.2-2.74-.15-1.37.76-1.22.46-1.68-.61-3.2-.31-8.84-.46-12.66,0-6.56-.31-15.4.46-21.96-.61-1.52-.31-6.25.15-7.62.15-3.35-.3-12.66-.46-12.96q-.15-.31.15-.15c.61.3.15-2.44.91-2.29.76,0-.91-2.59-1.22-2.59-.15,0-.15-.15-.15-.3.3-.61.76.15,1.07-.61.15-1.83-.46-.31-.31-4.88.31-3.66-.61-2.13-1.22-3.81,0-.31-.15-.61-.31-.46-.46,0,.61-1.68.92-1.37.15,0,.3-.15.3-.46.15-.46.76.31.61-.76-.15-.46,1.22-2.9.3-1.68-.61.91-.61,2.44-1.52.91-.61-1.83.15-4.88,0-5.18-.46-1.22-.46-1.52.15-1.37.76.3,1.22-2.13.46-2.59-.3-.3-.61-.46-.76-.3-.46-.46-.46-2.9.46-3.35q.46-.31,0-.15c-.61.15-.92-.3-.31-.61.15-.15.31-1.07.15-2.29,0-4.42.61-.76,1.22-1.83.76-1.07,1.07-.91,1.37-2.44.15-1.68.76-.76.76-2.29-.3-2.13,2.44-1.68,3.51-2.44,1.68-.3,2.59-2.13,4.73-1.68,2.59.46,3.96.91,5.64,1.83,1.37.3,3.81,2.59,3.96,3.96,0,3.35,1.07,4.12,1.68,6.4.61,1.68,1.52,4.73,2.9,6.56.91,1.07.3,1.68,1.68,3.2.61.61,1.07,1.52,1.07,1.52-.46.76,2.59,3.66,2.59,4.73.31,0,1.07,1.68.91,1.68.61.61,1.83,2.44,1.68,3.35,0,.46,2.29,2.29,2.13,2.9,0,.3.31.91.92,1.22,1.52,2.13,2.9,5.18,4.88,6.86,2.59,4.27,9.15,11.13,12.05,15.1,7.78,8.69,18.15,19.21,27.75,24.86.46-.76-.3-5.49-.3-5.79.61-2.9.15-11.74,0-13.42.91-1.52-.31-3.81-.15-5.49.15-.91.46-11.44.46-14.33.15-6.56-.91-9.15.15-12.96-.61-1.68-.31-4.42-.46-6.1-.31-.3-.31-.61.15-.91.61-.61.61-.76,0-1.37-.61-.91.15-1.98,0-3.05.61-3.05-4.73-.61-4.42-1.83.31-.61-.15-.46-.76.15-.15.3-.3.46-.3.3,0-.76,0-.91-.31-.61-.3.46-1.52.46-6.4.46-5.03-.61-9.3,1.22-10.83-1.52.15-.76,1.52-.46,1.83-1.07,0-.61,2.13-1.68,2.13-2.13-.15-.15-1.22-.3-2.44-.3-4.12-.15-5.03-.31-5.03-.61-.15-.76,1.83-.15,2.13-.76,0-.15-.61-.31-1.52-.31-2.59,0-3.51-1.68-1.37-2.29,1.07-.31,1.22-.61.15-.76-.76-.3-.76.76-1.37.15-.76-.91-1.52.46-1.07-1.52.15-1.22.15-1.37-.46-1.37-.3,0-.46.15-.15.3.61.15.15,1.68-.3.92q-.15-.31-.15,0c0,.3-.15.3-.3.3-.31-.46-1.07,1.22-1.07.3-.15-.15,1.07-1.37.46-1.07-.61.46-.46-.15.15-.92,1.22-.61-.61-1.68.15-2.29.15-.15.31,0,0,.15-.61,1.52,1.98-1.07,1.22-1.52-.61-.3,1.68-1.52,3.81-1.98,8.39-.76,22.72,0,27.91-.3,7.32-.31,5.79-.31,9,1.37.31-.15,2.9,1.22,1.83,1.83q-.31.46.15.3c.61-.15,2.44.76,1.98,1.07-.15.31.31.46.91.31.31,0,1.52,1.98,1.68,3.2.61,9.3.46,27.3.61,42.7.46,28.06.3,32.17.15,35.68.46,1.37,0,3.66.46,5.03.76,1.22-.61,1.68-.46,2.59ZM206.59,413.76c0-.3.61-.91.76-.61.3.15-.76,1.22-.76.61ZM207.2,430.07c-.15.15-.15,0-.15-.46-.15-1.07.31,0,.15.46ZM207.2,414.37h.61c.3.46-1.22.15-.61,0ZM207.35,419.4q.3.46.76-.15c.76-.76-.91-.15-.76.15ZM208.88,424.58c0-.91-1.68.76-1.37,1.07.15.3,1.37-.46,1.37-1.07ZM208.73,417.57c-.3-1.52-1.37,1.07-.46.76.3-.15.61-.46.46-.76ZM209.18,399.73c.61-.46,1.07.15.61,1.07-.3.76-1.37,1.22-.61.15h.15c1.22-.92-1.22-.61-.15-1.22ZM221.84,497.02c0,.3-.91.3-.91,0,0-.46.91-.46.91,0ZM222.76,500.68c.15.46-.3,1.07-.3.15,0-.3.15-.3.3-.15ZM224.13,486.8c0-.15-1.07-.15-.92.15,0,.46.92,0,.92-.15ZM230.23,425.8c-.91.15.46,1.83.91,1.07.3-.3-.46-1.07-.91-1.07ZM230.53,423.36q-.15-.46-.3,0c-.91,1.83.61.76.3,0ZM234.19,438c-.15-.31-.76,1.37-.15.61.15-.15.31-.46.15-.61ZM234.65,433.58c0-.15-.15-.46-.3-.76-.61-.91-.61,1.83.3.76ZM235.56,436.94c-.46-.31-.91-.15-.91.3s1.68,0,.91-.3ZM239.68,441.97c.61-.76-.31-.31,0-1.22q.15-.76-.46-.15c-.76.76-2.44,1.07-2.29.46.31-.3-.3-1.68-.46-.91,0,.15-.15.31-.3.15-.46-.3.15.61,1.37,1.83.76.91,1.37.91,2.13-.15ZM237.55,438.61c0-.3-.15-.3-.3-.3-.61,0,.3,1.07.3.3ZM238,439.68c.15-.15.46-.3.46-.3-.15-.91-1.37.46-.46.3ZM240.44,443.8c-.15-.46-1.37-.76-.76.15.46.76,1.07.61.76-.15ZM241.66,448.68c-.46-.76-1.68,1.52-.46.76.15-.3.46-.61.46-.76ZM242.88,448.07c0-.46,0-.61-.15-.61-.3.31-.3,1.83.15.61ZM243.95,448.83c.61,0,.3,1.07.3,1.22,0,0,.31-.46.76-.91l.61-.61c-.3,0-2.74-.15-1.68.3ZM248.37,453.86c0-.3-.76-.61-1.52-.61-.61,0-1.68-1.22-1.68-1.98,0-.3-.15-.3-.46.31-.91.61.76,1.22.15,1.37-.46.15-.91-.15-1.07.46.15.46,2.74.3,2.9.91.61.61,1.07.61,1.07,0s.61,0,.61-.46ZM250.51,457.67c0-.61-1.37-.46-1.52-1.07-2.59-1.52,1.22,3.81,1.52,1.07ZM252.03,459.35c-1.07.3.61,1.83.91.76.31-.46-.3-.91-.91-.76ZM252.49,461.49c0-.15-.15-.31-.3-.31-.61,0,.3,1.22.3.31ZM254.32,463.16c-.46-.3-.91-.46-1.07-.46-.15.46,2.59,1.68,1.07.46ZM253.41,461.64q.15.61.3,0c.15-.3.46-.46.46-.15,1.37,1.52-.61-2.13-.76.15ZM255.69,464.84c-.15-.46-1.22-.61-1.22-.15-.3.15,1.68,1.07,1.22.15ZM256.61,464.54s-.15-.15-.3-.3c-.76-.31,0,1.07.3.3ZM257.37,463.32c-.15-.15-.61-.15-.91,0-1.22.61,1.68.76.91,0ZM257.22,475.06c-.31-1.22-.61.15-.15.46.15,0,.15-.15.15-.46ZM259.96,410.56c-.3-1.22,2.29,1.37,1.52,1.68q0,.15.3.15c.61,0-.3-1.22-.3-1.52,0-1.07,2.29.76,1.07.91-.46.31,1.52.76,1.68.61.91,0-.3,2.13-.76.91-.3-.76-1.68-.15-1.98-.76-.3-.31-.91-.31-2.13-.31-1.52.15-1.68.15-2.13-.91-.46-.91-.46-1.07-.15-1.22.3-.46,3.35,1.52,2.9.46ZM257.98,468.35c0-.61-.76-.15-.61.15.46.46.61.3.61-.15ZM258.59,465.76q.61.3.46,0c-.15-.31-.46-.46-.61-.46s-.15.15.15.46ZM258.44,406.44h.61c.3.31-1.07.15-.61,0ZM259.81,469.11c-.76-.61-1.68,0-1.07.46.46,0,.76.91.76,1.37.15-.46.91-1.68.3-1.83ZM259.51,401.41c.15.46.46.61.76.15.46-.61-1.22-1.37-.76-.15ZM260.72,411.93c0-.3-.61-.46-.76-.15-.15.31.91.15.76.15ZM263.32,470.48c-1.22-1.22.15,1.07-.61.46-.3-.15-.61-.46-.91-.3-.61.15-.61.3-.15.76.46.76,2.29-.15,1.68-.91ZM263.93,473.23c-.3-.46-1.52-.3-1.52.15s1.37-.3,1.22.3c.15.46.91-.15.3-.46ZM263.62,411.17c-.15-.61,1.22.3,1.37.46-.15,0-1.37.15-1.37-.46ZM264.69,475.67s-.3-.15-.46-.3c-.76-.3.15,1.07.46.3ZM266.98,408.27c0-.31-1.98-.46-1.98,0,0,.15,2.13.3,1.98,0ZM267.43,477.8v.76c.3-.46.91-1.52,1.52-1.37,1.37.61-.91-2.13-1.07-1.37.3.76-1.68,1.07-2.13.46q-.61-.61-.15.15c.46.3.46.76.31,1.22-.31,1.52,1.83-1.83,1.52.15ZM267.28,475.36c.3-.15.46-.3.3-.46-.15-.15-1.37.91-.3.46ZM272.31,479.94c-1.07,1.37-3.35.91-3.96-1.22-.76,0-1.98.91-.61,1.07.76,0,1.22.46.61.61-.46.3,1.07.15.61.91-.15.46,0,.46.46.46.91-.3.46.46,1.07.46.46.15,1.68,1.07,2.13.3.15-.3-1.98-.91-1.37-1.22.15-.3.61-.3.91,0,1.07.91-.76-.76.3-.76.61-.15.31-1.07-.15-.61ZM268.35,408.42c0-.15-.46-.15-.61,0-.61.15.91.15.61,0ZM268.81,478.72c0,.76.15.91.3.15.46-.61-.3-1.07-.3-.15ZM270.03,478.41c.15,0,.31-.15.31-.31,0-.91-.91.31-.31.31ZM270.94,408.42c-.15-.15-.46-.15-.61,0-.61.15.76.15.61,0ZM273.84,484.51c0-.3-.15-.3-.31-.3-.61,0,.31,1.22.31.3ZM274.6,485.73c-.3-.46-1.83.3-.46.3.3-.15.61-.15.46-.3ZM279.48,487.41c-.46.31-1.52-.91-1.83-1.37,2.13.46,1.07-1.68,0-.76-.46.61-1.07-.15-1.68.76-.3.46-.46.76-.3.76.76-.76,3.2,3.35,2.9,1.68-.15-.76.61-.46.91-.91.15-.15.15-.3,0-.15ZM276.13,484.66c.15-.15.3-.46.3-.61-.3-.76-1.07.61-.3.61ZM279.48,488.78c-.76-.61-.15,1.37,0,.46.15-.15.15-.46,0-.46ZM281.77,487.71c0-.46-.15-.61-.46-.46-1.22.3.61,1.83.46.46ZM282.84,490.61c-.15-.46-1.07.15-1.37-.31-.15-.3-.3-.3-.3,0-.61.76,1.68.61,1.68.31ZM284.06,492.14c.76-1.07-.76-.31-.61.3,0,.76.3-.15.61-.3ZM284.67,494.73c.15-.46-1.52-.46-.61,0q.61.31.61,0ZM289.55,496.25c0-.61-2.13-2.13-1.37-2.59.61-1.22-1.07,0-.76.91,0,1.37-.61,1.22-1.07-.15-.3-.91-.3-1.22.15-1.83.3-.31.3-.46.15-.31-.3.31-.61.31-1.07.15-.92-.3-1.98.76-1.37,1.22.76.76.31-.76,1.22,0,.91,1.37,1.98,4.12,4.12,2.59ZM292.29,498.24c0-1.07-.46-.76-.61-1.52,0-.61-.91-.91-.91-.15.15,1.22-.91-1.22-.91-.31,0,.76.76,1.68,1.07,1.37.3-.3,0,1.68.46.92.61-1.22.91,2.13.91-.31ZM291.83,464.84c-.15-.31-.31-.31-.46-.31-.61.46.91,1.37.46.31ZM293.36,435.11c0-.46-.15-.46-.31,0-.91,1.22.31.91.31,0ZM294.27,499.46c.15-.46-1.68-.31-1.37.3.15.3,1.37,0,1.37-.3ZM298.39,503.73c-.15.3-.61.3-.61-.15s.61.15.61.15ZM299.15,481.46c-1.07.46.15.76.46.15q0-.15-.46-.15ZM300.68,401.25c0,.46.15.3.3-.15.46-.76-.46-.15-.3.15ZM302.35,503.27c0,.61-1.52,1.52-.46,0,.46-.91.76-1.07.46,0ZM302.2,398.36c.46.15.3,1.07,0,.76-.31,0-.46-1.52,0-.76Z"/>
    <path class="st0" d="M318.06,453.25c.3.15.76,2.29.76.91,0-.3.15-.76.3-.76.61,0-.46,2.29.46,1.83.15,0,.46-.46.46-.76.46-.91-2.74-2.74-1.98-1.22Z"/>
    <path class="st0" d="M323.24,429.31c-.61.15-.15,3.66.46,1.22.15-.76,0-1.22-.46-1.22Z"/>
    <path class="st0" d="M334.52,485.73c0-.46-.76-.46-.76,0,0,.3,1.07.46.76,0Z"/>
    <path class="st0" d="M335.44,486.34c0-.92-.91.3-.3.3.15,0,.3-.15.3-.3Z"/>
    <path class="st0" d="M406.5,484.51c0-.61-1.07-.15-.91.31,0,.76,1.07.15.91-.31Z"/>
    <path class="st0" d="M410.16,480.85c-.31-.31-2.13,0-.91.3.76.31,1.22,0,.91-.3Z"/>
    <path class="st0" d="M413.06,476.89c-.61.46-.3.61.46.15.76-.61.15-.61-.46-.15Z"/>
    <path class="st0" d="M416.1,472.62c0-.91-.91.3-.31.3.15,0,.31-.15.31-.3Z"/>
    <path class="st0" d="M417.63,468.35c-.31-.76-1.07.61-.31.61.15-.15.31-.46.31-.61Z"/>
    <path class="st0" d="M574.54,409.64c.3,4.12-2.74,2.9-4.12,5.34-1.52,4.12-10.67,1.22-13.88,2.29-.15.15-.3,0-.3-.15,0-.46-1.37-.3-1.37.31-.31,13.57-.61,27.91,1.83,41.32.91,6.56,3.66,13.57,6.71,19.67,1.68,2.59,3.05,5.95,4.88,8.39.76,1.52,2.74,1.68,3.05,3.51-.15.76,2.29,5.03.46,4.42-.31-.15-.31.15,0,1.22.3.76-.31,2.13-1.22,2.13-2.13-.15-2.13.92-1.68,2.13.3.46-3.36,2.59-1.37.61q.46-.61-.15-.46c-1.83.46.31-1.98-.61-1.52-.31.15-.46.3-.46.46-.15.46-.76.46-.46-.15.15-.61-1.22-.46-1.83-1.37-1.98-1.68-2.44-.61-4.27-3.96-.76-1.37-.91-1.52-1.53-1.22-1.52.46.76,3.2,1.07,3.51.61,0,1.68,1.37,1.68,2.13.3,1.07,2.9,3.81,1.83,5.03-1.53,0-4.58-1.22-5.64-2.74-.31-.92-2.13-2.13-1.68-2.9.61-.61.31-1.52-.61-1.52-1.07.15-.76-1.83-1.83-1.98-.46-.15-.46-.31-.31-.92.15-.91,0-.91-.46-.76-.46.15-.61,0-.61-.61-.15-1.07-1.22-1.22-.91-2.59.31-.61.15-.76-.15-.61-.46.15-.61,0-.61-.76,0-.91-.46-1.07-.46-1.83,0-.91-1.22-.15-1.07-.91-.3-.76-1.52-1.98-.91.3.76,2.59,2.29,5.18,3.36,7.32.61.61,1.52,3.66,2.29,4.27.3.76,0,.61-.91-.46-1.22-1.22-1.07-1.98-1.68-2.59-.3,0-.15-1.07-.61-.91-.15,0-.31-.31-.31-.61,0-.76-1.07-1.37-.91-2.13,0-.91-1.52-1.22-1.37-2.29-3.66-5.18-7.47-17.38-8.54-25.16-.76-3.51-1.07-9.15-1.37-12.35,0-.91-.61-1.52,0-1.83.3-.15.3-.31-.15-.76-1.22-1.52.91-4.12-.31-5.18-.3,0-.3-8.84,0-9.3.46-.3.31-2.13-.3-2.59-.76-1.98,1.37-4.73.3-6.56-.3-.15-.3-.76.31-5.03.31-1.37-.46-1.52-.31-2.13.15-.3,0-.3-.46-.15-.76.3-6.71.61-7.32.61-1.83-.31-6.56-.15-8.54,0-.76.15-.91.15-.61-.15,1.37-1.83-1.53.3-2.29,0-2.13,0-4.88.15-7.47.15-.15,2.13-1.22,6.25.15,8.23.46,0,.46.15,0,.91-.15.3-.46.61-.61.46-.46-.15-.15,1.68-.46,1.83-.3.61,1.37,1.83.92,2.44q-.15.3-.61-.15c-.76-1.37,0,2.59.15,2.74.61,1.22-.46,1.22-.15,2.59,0,.92,0,1.07-.31.92-.61-.46-.3,1.22.46.91,1.52.3,0,1.07.31,1.83.46.61-1.53,1.52-.46,1.37,1.37.46-.91.31-.46,1.07-.91,2.29.46,4.42.61.46,0,1.07.15,2.44-.61,3.2-.46.46-.61.92-.31.92.46.15.15,2.44.76,1.83,1.53-.31-.61,1.68-.15,1.68.46-.3.46.15-.15.92-.15.61-1.22,0-1.07.3.15.15.15.46,0,.76-.46.91.15,1.07.76.46q.3-.46,0-.15c-.46.15-.46,0-.31-.31.91-.91,1.53,1.98.76,2.59-.61.61.76,1.22.15,2.29-.91,3.51.31,8.69-.61,11.89-.61.76-.46,2.13.15,1.83,1.07-.15-.61,1.68-.46,1.83.15.46-1.07,1.37,0,1.37,1.22-.61-.15,7.62.46,8.69.46.91.3,1.52-.46,1.22-.76-.15-.31,3.96-.61,4.57-.31,1.37.3,1.68.76.3.46-2.29.31,4.12-.15,3.66,0,0-.15-.31-.15-.46-.61-1.52-.76,1.07,0,1.37.15.15.31.61.15,1.07.31,1.22-.91,0-.76.91.46.61-1.37,3.51-.61,3.96.76,1.68-4.12,2.44-4.27,3.66.31,1.22-1.53-.76-1.68,0-.15.46-1.53.46-2.13.61.3-.46,1.07-1.83.91-2.13-.31,0-5.34,2.59-3.96.91,1.22-.61-2.74-4.12-3.66-3.66-.3,0-.76-1.22-.3-1.07.15.15.3-.3.3-1.07,0-1.52-.46-.91-.61-2.13,0-1.37,1.37-1.22.76-2.9-.76-.46,1.37-2.29.15-1.37-.91.76-1.52-.61-.76-1.83.31-.76-.46-.76-.3-1.83.15-.91-.15-1.52-.46-.76-.61,1.22-.31-6.56-.15-7.78.46-4.12-.15-4.57.46-7.62,0-1.83,0-3.81.46-5.64,0-.76.61-.91.15-1.68-.76-2.13.3-4.42,0-6.56.15-.76-1.37,0-.61-.92.61-.3.46-5.64.91-5.79.76-1.37-1.07-3.05-.15-5.03.15,0,.15-.15-.15-.15-1.52.3.61-1.52.15-1.83-.46,0-.61-2.13.15-1.68q.31,0,0-.61c-.3-.76-.15-1.22.61-1.22.3,0,.46-.15.3-.31-.61-.3-1.22-1.68-1.07-1.98.3-.31.46-2.59.76-3.05-.3-.91-1.52-.31-1.07-1.98.15-1.37,1.98-2.9.76-3.96-.46-.15-.46-3.2.15-3.51.31-.15.31-.3,0-.3-.61,0-.3-.91-.76-1.07-.3,0-.3-.15,0-.15.46.15.15-1.07.61-.91.46.31.76-1.07.46-.91-.76,0-1.22-.91-1.07-1.37.61-1.07,0-3.2-.61-2.59-.46.76-3.35-.3-4.12,0,0,.15-.46.15-1.22-.15-1.22-.46-1.37-.46-1.83,0-.31.46-.61.61-1.22.3-3.96-.76-9.61.61-14.03-.3-.76-.15-.91-.15-.91.76.15,6.71-.61,8.54-.61,14.03.15,3.66-1.52,4.73-.91,7.47.46,0,.15,3.51-.3,3.66q-.31.31,0,.46c1.37,1.68-1.83,1.98-.61,3.81.61,1.68-.46,1.68-.61,2.9-.3,1.83-.3,4.57-1.68,6.1-.61.46-.61.61-.46.76,1.07.3-.15,3.66-1.07,4.12-1.22.15,0,1.98-.91,2.13-1.22.3,1.22,3.35-.76,3.96-.3,0-.46.3-.3.61,0,.15-.15.46-.61.61-1.98.91,2.29,2.13-2.13,4.27,1.52,2.59-.46,1.52-1.83,2.13.31.46-.76.76-.15,1.22.46.61-.31.61.46,1.52.46.46.46.61,0,1.37,0,.91-5.49,1.07-3.81,1.83.31.15,1.98-1.07,1.52-.3,0,.3.15.61.31.91,1.52.76-.31,2.13-1.52,2.13-.46,0-.61.15-.61.76-.15.3,0,.61.15.61.61,0,.3,1.52-.31,1.68-.91.46,0,1.37-.91,1.98-.76.61-1.52,3.81-2.59,2.13-.31-.61-2.59-.31-2.44.46.15.46,2.29.3,1.22,1.07-.15-.15-1.37,2.13-1.07,2.29.46-.15.61-1.22,1.22-1.07q.46,0,0,.46c-.61.76-1.22,1.68-2.44,1.37-.15-.15-.46-.15-.46.15,0,.76-1.07,1.07-.91,2.13q-.15.92.46.46.46-.46.46,0c.15.76-.91.76-.91,1.37.15.61-2.9,1.98-2.9,2.59-.15.61-1.07.15-1.22.92-.3.61-1.98.61-2.44,0-.15-.15-.46,0-.76.46-.61,1.22-3.81.91-4.57.3-1.37-.46-3.05-1.83-3.35-3.35.15-.3,0-.46-.15-.3-1.22.15-1.07-2.44-1.68-3.36-.76,0,.3-5.95-.61-5.64-.46-.3-.46-.46,0-1.22,1.98-2.74,5.79-7.01,7.47-10.06.15-1.07,1.22-1.37,1.68-2.44.76-1.52,1.83-2.74,2.29-2.44.15.15.15,0,0-.15-.3-1.07,1.22-3.81,1.83-4.57.46-.91,1.37-1.07,1.22-2.59.15-1.98,1.83-3.66,2.29-5.49.46-1.37.46-3.2,1.37-4.57,1.37-2.9,4.27-10.67,4.27-14.49-.3-.46.61.46.46-.91,0-1.68,1.07-1.52.91-3.35,0-5.49.91-4.73.61-9.61-.76-2.29,3.51-12.35-.76-12.5-3.51-.3-10.83.15-13.42-1.07-.61-.76,1.37-1.68,2.44-1.22,1.07.15,1.22,0,1.22-.46-.15-.46,1.07-.76.15-.76-1.07,0-.46-.61-1.68-.31-1.52.31.3-.76-.31-1.07-.61-.3-.3.61-1.07.31-.46,0-.61,0-.3-.15.46,0,.15-1.07.61-.91.15.15.15,0,.15-.46q-.15-.61-1.07.15c-.76.91-2.29,1.07-2.29.61-.46-.61-1.83-.46-1.22-1.98.15-.46,1.07,0,1.22-.3,0-.15-.3-.46-.76-.46-1.07-.15-.46-1.37-1.37-1.37q-.46-.15.15-.61c1.22-.91-1.52.15.31-1.22.91-.92,1.07-1.22.46-1.07-1.07-5.49,4.88-5.18,14.64-5.18,8.39,0,7.01-.61,12.05-.15,5.18-.15,7.47-.76,9.3.3.76.3.76.15.46-.3-.46-.46,0-.76.46-.15.3,0,13.88-.15,14.64-.3,2.29-.31,7.01-.15,9.61.15.92-.15,1.83-1.07,1.68-1.52-.15-.61,1.52-1.83,2.59-1.98.76-.15.91-.15.76.31-.61,1.22,2.74-.31,2.44-1.22,0-.46.15-.61.61-.46,1.22,0,1.07-.61,2.44.31.31.3-.61,1.37-1.07,1.07-.31-.15-1.68,1.07-2.13,1.37.61-.15,1.68-.31,1.83-.76.31-.76,2.75,1.07.61,1.07-3.05,1.07-1.98.91.15,1.07,1.98,1.07,2.29-.46,1.22-1.68-.76-.46-.61-1.07.15-1.37,1.22-.3,2.13.46,1.22.91-.15.15,0,.31.46.61.76.46.61,1.22.61,1.98.15-.76,1.37-2.44,1.07-.61-1.07,1.37,4.27.31,4.12,1.07-.3.46.31.46.61,0,3.81-.91,11.89.3,16.01-.46.92-.3,1.07-.15,1.07.3,0,.91,1.98.15,2.44-.15,4.27-1.37,1.37,1.37,3.35.3.76-.46,4.12-.61,5.49-.76-.15.46-.31,1.37-.46,1.83,1.22-1.07,5.49-2.44,5.79-1.37.31.91,1.83-.91,2.75-.15.3.46,1.07,0,.91.46-.31.76,1.98.46,1.52,0-.15-.3,2.13-.76,3.36-.61.61-.15,1.37,1.07,1.68.76,0-.61.91-.31,1.37-.61.76-.46.31.76.92.91.15.15.3.15.15-.15-.3-1.22,1.98.46,2.75-.3,1.52-.91,0,.46,1.37.3,1.07-.15.46.76.31,1.37.61-.31,3.66-2.29,2.13-.31-.31.31-.46.61-.31.61,1.52.3,5.03.46,4.57.76.15.31.46.46.76.46.61,0,.46.61.61.76,0-.15,3.81,2.74,2.59,3.05-.15.91,1.07,1.22.46,3.35ZM426.47,492.75s.15-.3.3-.46c.31-1.22-.91.15-.3.46ZM427.84,496.56c-.61-1.22.61-.76-.3-2.29-.46-.76-.46-.91-.31-.3.15.46-.15,3.2.61,3.2.31,0,.31-.15,0-.61ZM428.91,489.85c0,.46,1.22.46,1.52,0,.3-1.07-1.52-.91-1.52,0ZM432.57,491.68q-.15-1.07-1.22-.15c-1.52,1.22-.61,1.68.3,1.83,0,0,0-.3-.15-.46-.15-.91,1.37,0,1.07-1.22ZM434.4,488.63c-.61-2.59-5.64,0-3.05.3-.15-1.07,1.22-1.52,1.68-.46,0,.15.3.46.61.46.91-.15,1.68,1.52.76-.3ZM433.33,490.31c0-.3-.61-.46-.76-.15-.15.46.76.46.76.15ZM435.93,494.42c.15.3.3.15.3-.3-.15-.76-1.07-.31-.3.3ZM436.69,495.49c-.76-.91-1.68,1.52-.46.61.46-.15.61-.31.46-.61ZM439.13,407.96c-.15-.15-1.07-.15-.91.31,0,.3.91-.15.91-.31ZM439.43,412.54c-.46-.46-.3.91-.15.76.15-.15.15-.46.15-.76ZM442.79,412.23h-1.37q-1.07-.15-1.22,1.37c-.15,1.07-.76,1.68,1.37.91.76-.15.61-1.22,1.07-1.07.46.15.3-1.22.15-1.22ZM441.72,498.69c.15.15.15.31,0,.61-.61.46,1.22.3,1.07-.3.3-.61-1.07-.61-1.07-.31ZM444.16,412.69c.15-.46-.61-.46-.61,0s.61.46.61,0ZM444.47,473.23c.15-.61-1.52.46-.61.31.15,0,.46-.15.61-.31ZM444.62,497.02c-.46.46-.76.61-.76.3,0,0,1.68-1.52.76-.3ZM445.38,492.29c.31-.76-.15-1.37-.46-.76-.76.91,0,1.68.46.76ZM445.53,495.49c0-.15-.15-.31-.31-.31-.76-.46,0,.92.31.31ZM449.04,490.76c0-.46-.61-.46-.61,0s.61.46.61,0ZM450.26,466.82c.15-1.22-1.98.46-.61.46.31,0,.61-.15.61-.46ZM451.63,462.71c-.91-.46-2.13.46-.46.3q1.07,0,.46-.3ZM462.46,421.99c0-.15-.15-.46-.3-.61-.76-.15,0,1.68.3.61ZM491.43,488.32c-.15.46-.61.31-.61-.3s.61,0,.61.3ZM493.26,426.87c.3.46.46.15.46-.76,0-1.52-.76.46-.46.76ZM494.02,501.59c0,.46-.3.46-.46,0-.3-.3.46-.3.46,0ZM508.66,458.59c0,.76.15.76.46.15.3-.46-.46-1.07-.46-.15ZM508.82,456.15c.15-.3.15-.61,0-.76-.15-.61-.15,1.22,0,.76ZM508.97,439.83c0,.46.31.3.46,0,.31-.46-.46-.46-.46,0ZM541.45,447.31c0-.15,0-.46-.31-.61-.61-.76.15.91.31.61ZM541.75,457.06c-.15-1.68-1.07.76-.3.91.15,0,.3-.46.3-.91ZM541.6,452.18c-.15-.31-.3-.61-.3-.61-.46.3.46,2.29.3.61ZM542.36,461.49c.3-.31.46-.61.46-.76-.76-.91-1.68,2.13-.46.76ZM544.34,476.89c-.15.3-1.37-.91-1.07-.15,0,.15-.15.31-.31.46-1.07,0,1.22,1.98,1.37,1.83,0,0,.15-.46.15-1.07s0-1.07-.15-1.07ZM547.09,482.53c-1.07-1.22-.61.91-.31,1.37.15,1.07.91-1.07.31-1.37ZM548.16,471.09c-.31-.15-1.53.15-.46.15.46,0,.76-.15.46-.15ZM549.53,457.06c0,.46.31.3.46,0,.15-.46-.61-.46-.46,0ZM561.27,493.66c.31,0,.46-.15.31-.31-1.07-1.22-2.13,0-.31.31ZM561.73,494.58c-.31-.31-.46-.61-.46-.46-.15.3,1.37,1.98.46.46ZM566.15,501.29c-.3,0-.46-.3-.61-.61-.15-.46-.15-.61-.15-.61,0-.15,1.53,1.37.76,1.22ZM567.68,411.01c.15-.15.46-.3.46-.61.31-1.07-1.37.61-.46.61ZM568.9,502.51c.15-.15,0-.15-.31-.15-.91.3.46,1.68-.61.76-1.07-.61.31-2.29,1.98-2.29,2.29.15-.91,3.05-1.07,1.68ZM568.9,413.45c0-.61-.92-.3-1.07-.91-.15-.15-.15,0-.15.61-.15.91,1.07,1.07,1.22.3ZM569.81,411.01c0-.91-2.9.61-.91.46.61,0,.91-.3.91-.46Z"/>
    <path class="st0" d="M602.74,429.01c-.46,2.13,2.44.15.91,2.74-.91,0,0,3.2-.61,3.2-.46,0,.15.61-.3.61-.31.76,1.98,4.12.3,4.12-.3.15-.61.46-.61.76,0,.76,2.13,2.59.76,3.2-.46.15-.3.15.15.61q.46.46-.15.3c-2.13-1.07,1.07,2.74.46,3.2-.46-.15-1.22-2.59-1.53-1.37,0,.61,1.53,1.98,1.68,1.68.15,0,.3,0,.3.3,0,.76-.91.76-1.07.15-.15-.3-.3-.3-.61,0q-.31.46,0,.46c.76,0-1.07,1.68.31,1.52.46-.3,1.07.61.76,1.22-.31.91-1.22.15-.91,1.52.31.91-.61,1.07-.15,1.83.46.76-.46.46-.15,1.98.15,2.29-.15-.15.76,1.07.76.46.46,2.13-.46,1.98-1.22-.15.61,1.22,0,1.68-.91.3,1.22,1.52.15,1.07-.46,0-.61,0-.61.46.91,1.68.91.15.91,5.03-.15,3.96-.15,4.27-.61,4.27-1.83,0,1.98,1.52.15,2.9-1.53,1.52,1.22,1.37-.15,2.74-1.98,2.29,1.52,1.37-.15,3.35-.61.76-.46-.76-1.07.15-1.07,1.22,1.37-.91,1.53,2.9.46,2.13-1.68.3-.46,1.37.61.61.46,1.68-.15,1.52-.76,0,.91.91.61,1.37,0,.61-.76,1.37-1.07.91-.15-.15-.15.15,0,.61.61.91-.15.46.61,1.22.76.46.31,5.64-.76,4.42-.76-.61-.46.91-.31,1.07.31.46-.46,1.52-.46,1.83-.15.46-.61.3-.31,1.37.76,1.37-2.74,3.35-2.74,1.37-.31-3.05-1.68,4.27-3.66,2.59-1.22-.31-2.29-1.07-3.66-.91-4.42-.15-5.34-7.47-5.79-10.83-.46-1.37-.76-1.37,0-2.9.46-2.44.76-3.66.46-6.4-.46-1.98-.76-8.08-.31-8.69.31-1.07-1.07-1.98.15-3.05,1.07-1.07-.31-1.07.61-2.29.46-1.52-.46-3.66-.61-5.34-.31-.91.61-.76.46-2.13-.15-1.22.46-1.07.31-1.68,0-.15,0-.76.31-1.22.61-1.68-.91-1.83-.76-3.66,0-.61-.15-1.37-.31-1.37-.76-.91,1.98-3.66,1.37-4.57-.31,0-.46-.3-.46-.61-.31-.91-1.22-1.68-.61-3.2.46-.91-.76-4.12.46-3.66,1.07,0-.91-2.44.31-2.29,2.29-.76-2.13-.46.61-2.74.15-.46.31-.61.15-.46-1.22.15-1.37-3.35-.91-3.35.76-.15-.91-1.07.61-.91.61,0,.76-.15.46-.31-.61-.61.15-1.07-.46-2.13-1.37-1.98.61-.61.91-1.98.31-1.68-1.07,1.83-1.07-.15,0-.46.15-.76.46-.76.61.3.31-1.98,0-1.83-.31,0-.15-1.52.31-2.13.61-1.07.3-3.51-.31-4.42-.15-1.07,2.13-2.59.91-3.96-.31-.46-.46-.76-.15-.76.76-.46-.76-2.59,0-3.36.76-1.07-.46.31-.3-.76,0-.91,1.22-1.83.3-2.29-.46-1.68.46-5.18.76-5.95,1.07-3.51,1.22-4.57,5.64-4.73,0,.3-1.98,1.22-2.29,1.07-.15-.15-.31-.15-.31,0-.3.76-1.83.92-1.52,2.13,0,.76-.91,1.22-.91,1.83.31.46,2.74-1.07,2.74-1.52,0-.3.31-.76.76-.91.61-.3,2.44-1.52,3.05-1.37.31.46-1.07,1.98-1.98,2.44-.61.15-.91.46-.61.46.76.31-3.66,3.2-1.07,2.29,1.07-.46,2.44,1.68,2.59,0,.15-.92.46-.31.91-.76.91-.46-1.52-1.83-.61-.76.91,1.07-.91.3-.31-.61.15-.61,3.2-.61,3.05.15,0,.15.15.76.46,1.22.46.46,0,1.52.46,1.52.15,0,.46.15.76.3,1.53,1.52.91-.46-1.07-3.66-.76-1.07.61-.31.46-1.07-.46-.61-1.83,1.68-1.68.15-.15-.61-2.44-3.66-.15-1.98.76.46.15,1.52.91.91.46-.76,2.74,1.37,1.52-.46-1.68-2.74,6.1,3.2,3.2,3.05q-.61,0,0,.61c.76.91-.15.91.15,2.13.15.76-.15,2.13.31,2.44.61-1.07,1.22-2.29.91.61,0,.76-1.07,6.4.15,6.25,1.07.15,0,1.37,0,2.13,0,1.07-1.22.15-.15,1.07,1.37.61-1.68,1.52,0,1.68.61.15.3.91-.31.76-.31,0-.46.31,0,.76.31.3.31,1.83,0,1.83-.15,0-.15.3,0,.46.15.91-.61-.15-.46,1.68,0,1.37.15,1.68.76,1.68.91-.3.3,3.35-.31,3.35-.31,0-.61.31-.61.61ZM586.58,404.61c.15-.46.46-.61.46-.61.46.15-1.53,1.98-.46.61ZM586.58,421.53c0-.15.15-.3.31-.3.46.15-.46,1.07-.31.3ZM590.39,402.78c0-.15-.15-.31-.3-.31-.76-.3-.15.92.3.31ZM595.42,399.42c0-.61.76-.31.61,0,.15.46-.61.76-.61,0ZM597.86,405.83c-.31-.61-.15.91,0,.61.15-.15.15-.46,0-.61ZM599.54,406.59c0-.46-.15-.76-.46-.76-.76.15.46,2.44.46.76ZM601.67,446.54c-.15-.61-1.83-.3-.61.31.61.46.91.46.61-.31ZM602.44,437.85c.46,0,.61-.15.46-.15-.31-.3-1.53,0-.46.15ZM602.74,451.57c.46,0,.61-.15.46-.15-.3-.3-1.52,0-.46.15Z"/>
    <path class="st0" d="M707.65,407.05c.61.61,0,1.68.61,2.13.46.46.61.46.3,0-.15-.31.15,0,.61.46.91.91.46,2.9,1.98,1.37.61-1.52,2.44.3,3.66-.15,2.29-.76-.61,3.96-1.37,4.12-1.07.3-1.22,1.83-2.29,1.98-1.68.15-1.98,0-2.13-.15-.15-.3-1.53.76-1.53,1.22,0,.15-.61.3-1.22.3-1.68.3-2.59,1.22-4.73.3-.31-.15-.46,0-.46.15,0,.46-2.29.3-3.96-.61-1.37-.61-1.68-.15-2.74-.61-.46-.31-.61-.31-.76.15,1.07,1.22-10.52,0-13.42.15-5.79,0-4.88-.15-7.32-.46-1.98.3-2.29.3-2.9,0-1.37-.61-5.34-.31-7.01-.15-.76.61-2.13-1.22-2.9-.15-.31.15-.76.31-.91.15-4.12-.46-13.57.31-17.54-.3-1.68-.46,0,.46-.46.91-.15-.15-1.07,1.98-.3,1.68.46-.46-.15,1.68.3,1.68.15.15.15.3,0,.46-.61.3-.61,2.74-.91,3.2-.15.15-.15.31.15.15.31-.15.31.61.46,2.29.3,2.9-1.37,2.9-.91,4.27.61.76,1.07-.15.76,1.07-.46,2.59.46,6.4.61,9.15.31,5.18,1.53,6.71,1.68,10.37-.15,2.9,1.07,3.51,1.68,5.64,0,1.37.31,3.35,1.98,5.03.91.91.61,1.68,1.22,2.29,1.22,1.37,1.68,4.57,3.05,5.95.76.3,2.29,2.44,2.75,3.2.76.76.46,1.52,1.98,2.13,1.68.76,1.52,2.29,3.2,2.9,1.22.3.76,1.07,1.53,1.37.3,0,.61.15.91.61,3.51,2.74,7.93,4.42,12.35,6.1,9.91,3.81,18.91,3.66,30.8,1.68,2.29-.46-.15,2.13,3.2,1.68,4.27.15,0,5.49,3.2,4.88.46-.31.76-.31,1.22.15.91.91-.46.15-.61.91-.46.76,1.68.46,1.68.76,0,1.22-4.42,5.03-5.49,6.1-.46,1.68-4.27,1.68-5.64,2.13-1.37.46-1.98-1.22-3.05-.15-.46.76-7.01.61-7.01,1.07-1.68-.91-8.08-.91-12.66-2.29-6.71-1.52-7.78-2.59-13.42-4.42-.46,0-.91-.31-.91-.46-1.83-1.52.15,2.59-1.37.15-.46-.76-.46-.91-.31-.15.31.91-.15.76-.61-.31-.61-1.22-1.22-1.22-.91.15l.15.91c-.3-.46-1.37-2.13-.91-2.44.15,0,.15-.15-.15-.3-.46-.31-.3.15-1.37-.61-1.37-.46-3.51-1.98-3.81-3.2,0-.15-.15-.31-.61-.31-.91.15-.91-.61-1.68-.46-.76-.15-1.98-1.68-1.83-2.29.15-.61-1.37-.15-.91-.91.46-.91-1.22.15-1.37-.46-.15-.46.46-.15.31-.92-.46-1.68-1.83.46-1.68,1.07,1.98.91,1.83,1.98,3.05,2.74.31,0,.92.46,1.37.91.91,1.22,1.53.3,1.98,1.37.46.91,1.68.91,1.98,1.98.61,1.22.91,1.52.76.46q-.15-.61.61.3c1.22,1.37.61,2.13,2.44,2.59-2.44-2.74-2.13-4.57.91-.3,1.22,1.83,6.56,2.9,8.54,4.27q.91.46.91,0c-.46-.76,1.68.3,2.13,1.07.31.61.91,1.07,3.2,1.52,1.83.46-1.52-1.22,1.52,0,1.68.91,4.12.3,4.42,1.68-.76-.46-.15.46-.15.61-.15,0-.46,0-.91-.15-.46.15-3.66-2.29-2.59-.76,1.22,1.52-3.05-1.98-2.29-.61.15.3,0,.3-.46.15-2.29-.61-4.42-.91-6.86-2.13-1.68-.76-2.29-.3-4.12-1.37-1.37-.91-1.83-.3-2.74-.91-9.91-3.81-19.98-12.35-25.62-21.35-5.95-7.78-9.15-17.54-10.98-27.91,0-.61,1.52-.46.31-1.22-.91-.76-1.07-1.22-.46-1.37.31-.15.15-.46-.15-1.22-.46-1.22-.15-1.52-.3-2.59-.46-.76-.46-2.13-.15-2.44.15,0,.46-1.07,0-.91-.15.15-1.22-.76-.61-.76.46-.3.46-3.05,0-3.2-.76-.15,1.37-1.68.15-1.07-.46.15-.61.15-.3-.15.3-.61.3-1.98,0-2.9-.15-.3,0-1.07.3-1.68.61-1.22-.15-1.68,0-2.9,0-1.37-.76-1.07,0-2.29.61-.61.61-1.52.15-2.29-.31-.46-.15-1.98-.61-2.29-.46-.31-.46-.46-.15-.76.31-.3.46-.3.31.15-.31.46-.15.61.15.46.61-.3.46-1.22.76-1.83.46-1.22-1.07.15-.76-.76.31-.91-1.22-2.13-.15-2.9,1.22-1.22-1.07.31-.91.61.15,1.68-3.2.3-3.96-.15-.61-.46-.91-.46-1.53-.3-1.07.91-2.9-1.98-3.35-2.59-.31-.76-1.22-.3-1.37-1.07-.76-1.22-2.74-3.2-1.22-4.73.76-.61.31-2.59.76-3.51.61-1.52,4.27-.76,5.8-1.22-.31-1.52-1.22-3.05,1.37-2.9.76-.15,1.22-.15,1.22-.31,0-.46,4.12.15,4.88,0,0-.3,14.94-.3,15.1,0,.31.46,1.07.46.61,0-.15-.61,1.83,1.07,1.68.15.31-.91,6.1.46,6.4.31.46-.46,3.36.3,3.2-.46-.46-.76,1.37.92.91-.15-.3-.76.91-.15.61.15-.15.15,0,.15.3.15.31-.15.46-.15.46.15,0,.46,2.13.3,2.44-.31.46-.76,1.37,1.22,1.22-.15-.61-1.07,1.68.76,1.53.91.61,1.07.46-.91.91-.61.91.61.15-.91-1.07-2.44-1.22-1.52-1.37-1.83-.76-1.83,2.13-.15,14.03-.3,15.86.3,0,.46,1.22.46,1.53,0,3.35-.3,18.3.76,21.96,1.22.61.15.91,2.44,1.53,1.22.3-.61,1.37-.3,1.52-.76,0-.31.15-.31.46-.31s.46,0,.46.15c.31.61,1.98-.46,2.59.3,1.07,1.22.15-1.52,1.22-.46.91.92-.46-.91.46,0,.3.46.46.46.46.31,0-.31.31-.31.76,0,.76.61,2.13.76,2.13.3,1.07-.91,4.42,3.81,5.34,5.18,2.44,2.74-.46,1.83-1.22,3.35-.61,2.29-2.74-1.07-4.27-1.52-.46.3-2.74-1.68-1.83-.61ZM624.55,418.33c0,.3-.31.76-.46.91-.91,1.07.15,1.68.91.46,1.07-.46-.31-1.83-.46-1.37ZM633.85,398.66c0-.46.61,0,.61.15-.15.3-.76.3-.61-.15ZM634.76,398.97c0-.31.91,0,.91.15,0,.31-.91.31-.91-.15ZM636.9,398.81c-1.07-1.07,1.98.61.76.61-.15,0-.46-.31-.76-.61ZM638.42,398.2c.31-.15.61-.15.76,0,.15.31-1.22.15-.76,0ZM639.49,398.05c0-.31.15-.31.46,0,.3.15.46.3.46.15,0-.46,1.98-.46,1.98-.15,0,.46-1.98.15-2.13.61,0,.46-1.07.46-.46,0,.76-.46-.31-.15-.31-.61ZM643.3,405.22s-.15-.15-.3-.31c-.76-.3,0,.92.3.31ZM644.22,398.66c.31.61,1.37,1.07.61.15-.46-.15-.61-.46-.46-.61-.3.15,13.72-1.37,12.96.61-.31.76-1.53.3-2.13.15.15.76,1.68,2.9,0,1.22,0-1.07-5.34-.61-6.86-1.22-.76-.31-2.13.46-3.05.46-1.22.46-2.9-2.44-1.07-.76ZM651.54,405.68c-.15-.61-2.9-.46-3.36-.31-.46.31,3.2.61,3.05.61,0,0,.15-.15.31-.3ZM648.79,401.71c-.15.3-.76.15-.61-.15,0-.46.61,0,.61.15ZM653.06,401.25c.31.46-.76.3-.76,0,0-.46.61-.3.76,0ZM653.52,405.52c-.15-.15-.46-.15-.61,0-.61.15.76.31.61,0ZM652.91,492.14c0,.46.92.46.92,0s-.92-.46-.92,0ZM653.82,405.68c0,.3.3.3,1.22,0,1.22-.46-1.37-.46-1.22,0ZM654.43,400.64c.46-.15.61,2.13,0,1.37-.46-.3-.31-1.37,0-1.37ZM657.94,405.68c.31-.76-3.2.46-.91.3.46,0,.91-.15.91-.3ZM658.55,399.42c.61,1.37,0,2.74-1.68,1.68q-.46-.46,0-.46c.61-.15.76-1.68,1.68-1.22ZM664.8,400.34q-.15-.46-.46.15c-.15.76-1.98,1.37-1.68.46,0-.15-.15-.46-.46-.76-.46-1.07-2.29.76-1.07.76.46.15.61,0,.46-.31-.15-.46,0-.3.46,0,1.53,2.13-1.98.46,0,2.13.91,1.07,2.13,1.37,1.37.46-1.98-2.29,1.98-.3,1.37-2.9ZM664.65,406.74c0,.46.31.3.46-.31.31-.61-.46,0-.46.31ZM666.02,401.86c-.15-.76-1.37,1.07-.46,1.07.15,0,0-.31,0-.46-.3-.46.46-.15.46-.61ZM668.16,401.86c.3,0,.76.15.76.46,1.07-.15-1.22-1.68-2.13-1.07-1.22,0,.61,1.37.76.91,0-.15.31-.3.61-.3ZM669.68,403.08c-.15-.46-1.37.76-1.07.15q.15-.3-.3-.3c-.46,0-.61,1.07,0,1.22.46.15,1.52-.61,1.37-1.07ZM668.46,406.74c.15-.91-.91.15-.3.3.15,0,.3-.15.3-.3ZM669.68,400.64c0-.46-2.59-.3-1.22-.15.76-.3.92,2.44,1.37,1.22.15-.3,0-.91-.15-1.07ZM671.36,401.25c-.46-.46-.76,1.22-.92,1.83.15-.46,1.37-1.68.92-1.83ZM672.27,402.17s.15-.15.15-.46c.31-1.22-.76.15-.15.46ZM674.41,402.63c-.46.61-.61.61-.76,0-.15-.3-.3-.46-.46-.15-.31.61.61.61.46,1.52,0,1.07.46.91,1.07-.46.61-1.22.46-1.68-.31-.91ZM676.7,402.17c-.61.15,0,2.9.15.91.15-.61,0-.91-.15-.91ZM678.83,505.56c.31.61,0,.76-.31.15-.31-.3.15-.76.31-.15ZM683.25,404c0-.3-1.07-.46-1.22-.3-.15.3,1.22.46,1.22.3ZM684.47,506.62c.61.61-.31.61-.31.15-.15-.76-.91.91-1.37.15-.46-.3-.91-1.52.15-.76.61.46.91-.15,1.52.46ZM686.61,508.15c-.46.3-.31.3-.76,0-.15-.31.91-.31.76,0ZM686.76,405.37c0-.3-1.53-1.07-.61-.15.46.46.61.61.61.15ZM687.98,403.39c-.3-.31-.61-.46-.76-.46s0,.15.31.3c.76.61.91.61.46.15ZM704.14,412.08c0-1.68-1.98-.91-2.9-1.52-.31-.31-.46-.31-.61-.15,0,.76,1.98.76,2.29,1.52.76.76,1.37.76,1.22.15ZM700.94,399.42h.61c.3.3-1.07.15-.61,0ZM702.01,506.62c-.46.46-.61.61-.61.3,0,0,1.52-1.52.61-.3ZM705.82,506.78c-.15,0-.15-.15,0-.46.91-1.07.76.46,0,.46ZM707.96,506.17c-.15-.15,0-.3.31-.3.76,0-.15,1.07-.31.3ZM709.48,498.54v-.76c-.61-1.37-.46.61,0,.76ZM709.63,496.86c0,.46,1.37,0,1.37-.15-.15-.15-1.37-.15-1.37.15ZM711.61,414.06c0-.31-.15-.31-.3-.31-.61,0,.3,1.07.3.31Z"/>
    <path class="st0" d="M712.53,453.71c-.31-.76,0-.91.61-.91,1.07,0-.46,1.98-.61.91ZM813.47,456.45c-.15,0-.3-.15-.15-.46.15-.31-.91-.76-.76-.15,1.37,3.81,1.68,1.98,1.37,10.06,0,9-.15,13.11-.76,20.89.3,1.68,1.22,6.25,0,7.93-.91.61-.61,4.73-1.83,5.03-.61.61-.61.76-.3.61.91-.31,0,.61,0,1.07-.15,1.52-.15,1.68-.91,1.68-1.22.15-1.22,1.07-3.05.91-3.36.31-1.68-1.37-2.9-.3-4.88,2.44.31-3.05,1.07-3.66-.46-.3-1.98.15-2.44.15-.91,0-.61.46-1.22.61-1.07.15-1.52,2.74-2.74.91-1.07-.76.15-1.68-.15-2.44-.15-.3,0-.76.15-.91.46-.91-.46-.91-.76.15-.15.61-.31.91-.46.76-.61-.46-1.53,0-1.68-1.22-.61-3.81-.15-8.54.31-11.13.46-.15.31-.15-.15-.15-1.83-.76-.46-1.68-.61-3.66.76-6.71-.15-16.32.91-22.87-12.2,1.07-39.8-.46-52.91.91-1.22,0-.15,14.18-.61,13.88-.46.46-.46.76-.15,1.22.46,1.68-.61,4.27,0,6.4.15,1.07-.61,6.71,0,8.54.3,1.07-.46,1.37-.31,3.66-.31,2.59,0,3.35-1.22,4.57-1.37.76.31,1.07-.46,2.44-1.07,2.29-.61-.31-1.22-.15-.15.61-1.52.15-.31.91.91.3.46.91,1.37.91,1.37.15-.61.61-.46,1.52,0,1.37-1.98,1.52-3.2.15-.46-.61-.91-.61-.91-.31-.15.15,1.37.92,1.07,1.07-.31,0-.46.31-.46.61,0,.91-.31,1.07-2.29.76-2.29-.3-2.13.61-4.27-.76-1.98-1.07-4.58-1.52-3.05-3.96.46-.61.15-1.52-.46-1.37-.3.15-.46.15-.46-.15,1.07-.76-.46-1.83-.15-2.59.31-.31-1.22-1.83-.31-1.52,1.22.76.15-6.71-.76-4.42-.46,1.68-.76-.76-.31-.91.91.15.91-2.59.31-2.13-.15.15-.31,0-.46-.15-.15-1.37.46-2.44.15-4.12-.15-1.07-.15-1.52.15-1.83.61-.61.46.76.76-.15-.15-1.07.92-.91,0-1.83-1.22-1.37,1.22.3,1.22-.61,0-.15-.15-.31-.3-.15-.61.15-.61-1.07-1.37-.61-.76.61-.61-2.44-.46-2.59,0-.91.15-3.35,1.07-3.05.76.3-.15-.91.61-1.22.91-.61-.31-1.07-.61-.3-.3.76-.76.46-.76-.46.15-1.07-.91-1.22-.31-1.83.61-.76-.15-4.73.31-5.03.46,0,1.53,1.07,1.53,1.52.15.76,1.98,0,.46-1.07-1.07-1.07-1.98-1.07-1.52-2.74,0-.15,0-.46-.15-.61-.46-1.37.3-2.29-2.59-2.13-1.83.15-3.66-1.07-5.34-1.07-1.07-.15-1.68-.31-2.13-.92-2.13-2.44,1.83-2.44.31-2.74-.31.15-.46.15-.46-.15,0-.15-.3-.3-.61-.15-2.29.76,1.83-3.66,1.37-4.27,0-.3,0-.46.15-.46.46-.3-.15-1.37-.76,0-.61,1.22-.76,1.22-.61.15,0-.46,0-.76-.15-.3-.15.61-1.37.61-1.37,0,0-.46,1.07-2.13,0-2.13-2.29-.3,3.51-5.03,3.66-5.79.76-1.07.91-.76.46.3q-.61.91.31.76c1.22-.31,1.52-.61.91-.91-1.53-1.68,7.17-.31,7.17-1.98.76-.91-.91-2.13-.46-3.05.15-.3.15-.76.15-.76,0-.15.15-.31.3-.31.46.15.15-1.52.61-1.07,1.07.46-1.98-3.35,0-3.05.15,0,2.59.91,2.13.15,0-.3-.46-.46-.76-.3-1.52.91-.91-4.73-1.68-5.34-.91-1.22-.15-3.66.15-4.73-.31-.31-.15-.46.15-.31.46.31.46.15,0-1.22-.61-1.07.91-1.83.31-2.44q-.31-.31,0-.61c.61,0,0-2.74,0-3.2.91.92.15-1.68.3-2.29.15-1.37-.46-.46-.76-1.37-.76-1.83,1.22-1.37.31-2.74-1.07-.92,1.37-1.98,1.07-2.44-.31,0-.15-.31.3-.61.46-.31.91-1.98.46-1.52-.46.15-.46-.91-.15-.76.76.76,1.83-2.9.91-1.68-1.37,2.13-.91-2.9,1.07-3.2,1.52-.76,2.29-.76,1.52,0-.46.76-.15.76.76.61,1.07-.3,2.13-2.59,3.35-1.98,7.47,2.29,8.23,4.57,8.08,16.01.15,20.28-.46,15.1-.15,28.67,1.22-.15,11.89.3,12.5.46.31-.46,5.18-.46,5.79,0,.76.46,3.96-1.22,4.27-.15.61,0,7.47-.76,7.93,0,.3.76,2.9-1.37,2.29.31-.3.91.91.3.91,0,0-.15.15-.31.31-.15.46.15.46-.91,1.37-.46,1.83-.15,11.44.61,13.11.3,1.37-1.22,1.98.91,3.51.91,1.52.61,1.83-3.05,1.22-3.66-.46-.76-.3-4.12.31-4.42.15-2.44-.61-1.83,0-8.54.46-1.37.91-5.03.15-6.56-.46-.31,0-3.81-.46-3.81-.91-.46.46-1.37.15-2.44,0-1.22.91-.46.31-1.83-.46-.91.46-1.68,0-2.29-.15-.15,0-.61.31-1.22.46-.92.46-1.22.15-1.22-.61-.15.76-2.29.46-2.59-.31-.76.46-1.07.46-1.98.3-2.59,3.2-2.29,3.81-4.42,1.37-2.13,7.93-.3,9.3,1.22,2.44,2.74,2.74,10.83,2.44,14.79-.76.46,1.07,5.79-.61,5.34-.3.15-.61.46-.3.76-.15,1.37-.91,1.98.15,4.27.61,1.07,0,1.83.46,2.59,1.52.91-3.05,5.34-.91,6.56.91.76.15,2.13.61,2.74.76,1.37-1.83,3.2-.61,5.03.61,1.22.61,1.83.31,1.68-.15-.3-1.07,1.07-.61,1.07.46.3-.76,2.59.61,1.83,1.07-.46-.91,1.68-.31,2.29.15.91.91,1.52.91.76,0-.15.15-.3.31-.3.61,0,.3,1.68-.31,1.83-1.22.46-.46,3.81-1.07,5.03,2.59-4.88,1.37,1.52,1.07,2.74-.61.61.15-1.52-.31-1.37ZM716.49,451.12c.15.61.3.46.61,0,.15-.46-.61-.31-.61,0ZM720.91,447.61c-.76.46-.61-1.37-1.37.46-.31,1.22-.92,3.2,1.22,2.29,0-.15,0-.46.15-.61.61-1.22-1.22.46-1.22-.15.15-.46,2.9-2.13,1.22-1.98ZM724.27,442.73c.3-.46-2.29-.15-2.29.15-.31.91,2.29,0,2.29-.15ZM725.95,486.95c.31-.15.46-.3.15-.46-.15,0-.31-.15-.31-.3.15-.76,1.37.46.61-.76-1.07-2.44-1.98,2.74-.46,1.52ZM725.49,477.19c0,.61.46.46.76,0,.15-.61-.76-.61-.76,0ZM726.1,491.07c0-.91-.91.3-.31.3.15,0,.31-.15.31-.3ZM726.1,487.56c-.61.61.31.61.46.15.31-.61,0-.76-.46-.15ZM727.32,479.94c0-.46-.15-.91-.31-1.07-1.22-1.22.46,2.9.31,1.07ZM727.62,406.59c-.15-.3-.46,0-.61.15-.76.61.76,0,.61-.15ZM727.93,407.96c.31-.46-1.07-.15-1.07,0-.15.46.76.31,1.07,0ZM727.78,481.16c0-.3-.91-.3-.61,0,.3.46.46.61.61,0ZM728.08,430.38s-.15-.15-.31-.3c-.76-.31-.15,1.07.31.3ZM728.84,423.52c-.15-.15-.31-.15-.61,0-.61.15.91.31.61,0ZM728.69,413.61c0-.46-.31-.31-.46,0-.46.46.46.46.46,0ZM729,416.66s-.31-.15-.46-.3c-1.07-.15.46.91.46.3ZM730.52,406.29c0-.31-1.37.46-1.22.61.15.15,1.37-.15,1.22-.61ZM730.22,426.41h-.61c-.61.15.91.31.61,0ZM730.67,402.93c.46-.15.61-.61.46-.92-.76-1.07,2.74-1.07,1.52-1.52q-.61-.15,0-.46c1.37-.91-2.44-.76-2.59.15-.61.76-.46,1.07.15.76,2.74-1.83-2.9,4.27.46,1.98ZM730.52,409.49c.91-1.52-1.98,1.22-.46,1.22.3,0,.46-.15.3-.31-.15-.3,0-.61.15-.91ZM732.05,412.54s.15-.91.15-1.83c.3-1.83-.92-3.2-.76-.92-.15.92.76,3.05-.15,1.83,0-.15-.3-.31-.61-.31-1.52.15,1.22,1.22,1.37,1.22ZM730.83,427.33c0-.15-.15-.31-.31-.31-.61,0,.46,1.22.31.31ZM731.13,429.77c-.15-.3-1.37,0-.46.15.46,0,.61,0,.46-.15ZM731.89,416.96c0-.15-.31-.46-.76-.76-1.68-1.22,1.07,1.68.76.76ZM732.81,403.08c0-.15-3.05,2.29-1.37,1.83.76-.3,1.22,1.37,1.22-.3-.15-.61.76-.76.15-1.52ZM731.13,413.76c.3.31.76.15.76-.3,0-1.07-1.22-.61-.76.3ZM734.03,504.64c-.76-1.07-4.42-1.68-1.98-.46.3.15.76.46.76.76,0,.61,2.9.92,1.22-.3ZM732.96,499.61c-.46.31-.76-.46-1.22-.46-1.07.31,3.51,2.59,1.83,1.22-.91-.31-.31-.91-.61-.76ZM732.2,423.06c0-.15-.15-.3-.31-.3-.76,0,.31,1.22.31.3ZM732.2,497.78c-.76-.46,0,.91.3.3,0-.15-.15-.3-.3-.3ZM732.35,406.74c.15-.15.15-.46,0-.76-.3-.61-.15.91,0,.76ZM732.66,407.81c.15-.31,0-.46-.15-.61-.46-.31-.46,1.68.15.61ZM732.81,401.71c-.15-.61-.61-.76-.61,0,0,.61.46.61.61,0ZM732.96,502.51c.15.31.46.46.46,0s-.76-.46-.46,0ZM733.88,502.66c.15.3-.15.46-.46.46-1.52.31.76.31.91-.15.91-.61-.61-.61-.46-.3ZM736.32,498.85c.15-.3.31-.61.31-.76-.61-1.22-.91,1.83-.31.76ZM737.08,503.12q.15,0-.15.31c-.91.61.91.15.91-.46.3-1.07-2.13-.3-.76.15ZM748.82,444.71c0,.46.15.3.3-.31.31-.76-.46,0-.3.31ZM755.07,448.83c.15.61.31.46.61,0,.15-.46-.61-.3-.61,0ZM755.83,444.71c-1.83.61,1.22-.15,1.37-.46.46-1.22-.76,0-1.37.46ZM759.8,448.52c-.15-.3-.15-.15-.15.3,0,1.22.46,0,.15-.3ZM771.08,445.17c-.15-.3-.61-.15-.76-.76-.15-1.07-.91,2.9.76.76ZM775.5,445.02c.15.46.31.31.46,0,.3-.46-.46-.46-.46,0ZM778.71,450.35c0-.15-.15-.3-.31-.3-.76-.3,0,.91.31.3ZM785.11,446.54c0-.46-.61.31-.61-.3,0-.46-1.37-1.52-1.68-1.37-.46.3-.31.76.15.76,1.52.3-.61.76-1.22.76.91.31,3.51.76,3.35.15ZM788.77,445.78c-.31.15-.46,0-.46-.31,0-.61-.46-.61-.76-.15-.15.15,0,.3.15.3.3.91-2.44,1.98,1.37,1.07,1.37-.15.31-1.07-.3-.91ZM791.67,445.17c-.46,0-.76.91,0,.61.91-.46-.76,1.37-.91,1.52,1.07-.15,2.59-.46,3.51.3q1.07.76.91.3c-.31-.46,1.22-.15,1.07-.76,1.22-3.51-2.74-2.74-4.57-1.98ZM791.97,449.9c-1.07-.15-.15,1.68,0,.61-.3-.3.91-.61,0-.61ZM793.04,446.54c-.61.46-1.22.46-1.22,0-.15-.3,2.13-.46,1.22,0ZM798.07,499.91c.15.15-1.37.91-.61.15.15-.15.46-.3.61-.15ZM800.51,490.46l-.76.76c-1.22.76-1.22,2.59-.61,1.37,0-.46,1.07-1.68,1.37-2.13ZM799.75,494.88c0-.76-.91.3-.3.3.15,0,.3-.15.3-.3ZM802.95,498.69c-.15-.46-.61.91-.61.91.15.46.61-.91.61-.91ZM813.17,449.59q.46-.61,0-.15c-1.07.76-.46,1.07,0,.15ZM814.39,451.27c.15.31-.91,1.68-.91.76-.15-.46,1.07-1.68.91-.76ZM813.78,446.09c0-.15.46-1.37.61-.91.15,0-.46,1.37-.61.91Z"/>
    <path class="st0" d="M847.02,429.01c-.46,2.13,2.44.15.91,2.74-.91,0,0,3.2-.61,3.2-.46,0,.15.61-.3.61-.31.76,1.98,4.12.3,4.12-.3.15-.61.46-.61.76,0,.76,2.13,2.59.76,3.2-.46.15-.31.15.15.61q.46.46-.15.3c-2.13-1.07,1.07,2.74.46,3.2-.46-.15-1.22-2.59-1.53-1.37,0,.61,1.53,1.98,1.68,1.68.15,0,.3,0,.3.3,0,.76-.91.76-1.07.15-.15-.3-.3-.3-.61,0q-.31.46,0,.46c.76,0-1.07,1.68.31,1.52.46-.3,1.07.61.76,1.22-.31.91-1.22.15-.91,1.52.3.91-.61,1.07-.15,1.83.46.76-.46.46-.15,1.98.15,2.29-.15-.15.76,1.07.76.46.46,2.13-.46,1.98-1.22-.15.61,1.22,0,1.68-.91.3,1.22,1.52.15,1.07-.46,0-.61,0-.61.46.91,1.68.91.15.91,5.03-.15,3.96-.15,4.27-.61,4.27-1.83,0,1.98,1.52.15,2.9-1.53,1.52,1.22,1.37-.15,2.74-1.98,2.29,1.52,1.37-.15,3.35-.61.76-.46-.76-1.07.15-1.07,1.22,1.37-.91,1.53,2.9.46,2.13-1.68.3-.46,1.37.61.61.46,1.68-.15,1.52-.76,0,.91.91.61,1.37,0,.61-.76,1.37-1.07.91-.15-.15-.15.15,0,.61.61.91-.15.46.61,1.22.76.46.31,5.64-.76,4.42-.76-.61-.46.91-.31,1.07.31.46-.46,1.52-.46,1.83-.15.46-.61.3-.31,1.37.76,1.37-2.74,3.35-2.74,1.37-.31-3.05-1.68,4.27-3.66,2.59-1.22-.31-2.29-1.07-3.66-.91-4.42-.15-5.34-7.47-5.79-10.83-.46-1.37-.76-1.37,0-2.9.46-2.44.76-3.66.46-6.4-.46-1.98-.76-8.08-.31-8.69.31-1.07-1.07-1.98.15-3.05,1.07-1.07-.31-1.07.61-2.29.46-1.52-.46-3.66-.61-5.34-.31-.91.61-.76.46-2.13-.15-1.22.46-1.07.31-1.68,0-.15,0-.76.31-1.22.61-1.68-.91-1.83-.76-3.66,0-.61-.15-1.37-.31-1.37-.76-.91,1.98-3.66,1.37-4.57-.31,0-.46-.3-.46-.61-.31-.91-1.22-1.68-.61-3.2.46-.91-.76-4.12.46-3.66,1.07,0-.91-2.44.31-2.29,2.29-.76-2.13-.46.61-2.74.15-.46.31-.61.15-.46-1.22.15-1.37-3.35-.91-3.35.76-.15-.91-1.07.61-.91.61,0,.76-.15.46-.31-.61-.61.15-1.07-.46-2.13-1.37-1.98.61-.61.91-1.98.31-1.68-1.07,1.83-1.07-.15,0-.46.15-.76.46-.76.61.3.31-1.98,0-1.83-.31,0-.15-1.52.31-2.13.61-1.07.3-3.51-.31-4.42-.15-1.07,2.13-2.59.91-3.96-.31-.46-.46-.76-.15-.76.76-.46-.76-2.59,0-3.36.76-1.07-.46.31-.3-.76,0-.91,1.22-1.83.3-2.29-.46-1.68.46-5.18.76-5.95,1.07-3.51,1.22-4.57,5.64-4.73,0,.3-1.98,1.22-2.29,1.07-.15-.15-.31-.15-.31,0-.3.76-1.83.92-1.52,2.13,0,.76-.91,1.22-.91,1.83.31.46,2.74-1.07,2.74-1.52,0-.3.31-.76.76-.91.61-.3,2.44-1.52,3.05-1.37.31.46-1.07,1.98-1.98,2.44-.61.15-.91.46-.61.46.76.31-3.66,3.2-1.07,2.29,1.07-.46,2.44,1.68,2.59,0,.15-.92.46-.31.91-.76.91-.46-1.52-1.83-.61-.76.91,1.07-.91.3-.31-.61.15-.61,3.2-.61,3.05.15,0,.15.15.76.46,1.22.46.46,0,1.52.46,1.52.15,0,.46.15.76.3,1.53,1.52.91-.46-1.07-3.66-.76-1.07.61-.31.46-1.07-.46-.61-1.83,1.68-1.68.15-.15-.61-2.44-3.66-.15-1.98.76.46.15,1.52.91.91.46-.76,2.74,1.37,1.52-.46-1.68-2.74,6.1,3.2,3.2,3.05q-.61,0,0,.61c.76.91-.15.91.15,2.13.15.76-.15,2.13.31,2.44.61-1.07,1.22-2.29.91.61,0,.76-1.07,6.4.15,6.25,1.07.15,0,1.37,0,2.13,0,1.07-1.22.15-.15,1.07,1.37.61-1.68,1.52,0,1.68.61.15.3.91-.31.76-.31,0-.46.31,0,.76.31.3.31,1.83,0,1.83-.15,0-.15.3,0,.46.15.91-.61-.15-.46,1.68,0,1.37.15,1.68.76,1.68.91-.3.3,3.35-.31,3.35-.31,0-.61.31-.61.61ZM830.85,404.61c.15-.46.46-.61.46-.61.46.15-1.53,1.98-.46.61ZM830.85,421.53c0-.15.15-.3.31-.3.46.15-.46,1.07-.31.3ZM834.66,402.78c0-.15-.15-.31-.3-.31-.76-.3-.15.92.3.31ZM839.7,399.42c0-.61.76-.31.61,0,.15.46-.61.76-.61,0ZM842.14,405.83c-.31-.61-.15.91,0,.61.15-.15.15-.46,0-.61ZM843.81,406.59c0-.46-.15-.76-.46-.76-.76.15.46,2.44.46.76ZM845.95,446.54c-.15-.61-1.83-.3-.61.31.61.46.91.46.61-.31ZM846.71,437.85c.46,0,.61-.15.46-.15-.3-.3-1.52,0-.46.15ZM847.02,451.57c.46,0,.61-.15.46-.15-.31-.3-1.52,0-.46.15Z"/>
    <g>
      <path class="st0" d="M415.39,479.13c.16-.25.29-.49.42-.74.1.25,0,.43-.42.74Z"/>
      <path class="st0" d="M414.49,480.57c-.04.25-.13.47-.39.61.13-.19.26-.4.39-.61Z"/>
      <path class="st0" d="M398.66,461.72h-.03v-.04l.03.04Z"/>
      <path class="st0" d="M415.39,479.13c-.29.49-.6.96-.9,1.44.08-.48.05-1.04.86-1.4l.04-.04Z"/>
      <path class="st0" d="M400.42,454.19c-.35,2.54-.93,5.06-1.79,7.49l-4.41-8.56c-.26-.48-.22-1.08.13-1.49.43-.51,1.17-.61,1.71-.26,1.4.91,2.87,1.87,4.36,2.83Z"/>
      <path class="st0" d="M419.46,468.65c-.61.16-.31,1.22-.77,1.53-.3.16-.45,0-.45-.31,0-.61-.77-.75-1.06-.14-.31.45-1.08-.31-.92.61.16.61.31.61.92.14.91-.75,2.28,1.22.91,1.69-.3.3-.77.75-.77,1.06-.14,1.38-1.36,1.83-1.97,1.83,0,.61-1.83,1.06-.16,1.38,2.28,0-.31.91.45,1.67.08.1.13.19.16.29-.13.25-.26.49-.42.74l-.04.04c-.8.36-.78.92-.86,1.4-.13.21-.26.42-.39.61-.08.05-.17.09-.29.13-.3.16-.61.61-.77,1.06,0,1.06-1.52,1.22-1.83,2.14,0,.75-1.67,1.06-1.52,1.83-7.47,9.15-20.59,13.56-31.1,15.09-.47.16-.77.3-.61.45.91.45-3.52,1.06-3.97.77-.77-.45,1.06-.77,1.38-.77.77-.45-3.97-.45-3.97.16-.3.45-2.28.61-2.13.16.45-.47-.45-.31-1.06.14q-.31.31-.16-.14c-11.29,0-28.82-3.97-36.45-13.42-3.21-1.22-3.35-4.13-5.94-6.86-1.22-1.06-.61-3.36-1.83-3.97-.16,0-.31-.16-.31-.3,0-.47-1.67-2.3-1.36-2.75,0-.16-.16-.91-.47-1.38-.91-1.36-.61-4.11-2.28-4.41-1.06,0-.45-1.99.16-.77.3.45.61.45.77.16.78-.27-1.26-2.23-1.44-3.15,6.01-3.92,14.33-9.33,21.2-13.79.17-.12.34-.22.51-.34.39-.25.91-.19,1.23.13l15.74,15.81-7.16-13.53c-.22-.43-.1-.96.3-1.26l16.93-12.25c.34-.25.8-.25,1.15,0l29.82,21.59h.03s-.03-.03-.03-.03c.86-2.43,1.44-4.94,1.79-7.49,6.14,4,12.79,8.33,17.73,11.54-.19.58-.22,1.1.25,1.4.3,0,1.97,1.38,1.06,1.52Z"/>
      <path class="st0" d="M420.52,454.62c0,2.6-.45,1.69-.61,3.97.06.22.05.47.03.73-6.07-3.96-13.86-9.02-19.26-12.52-2.63-1.71-4.7-3.06-5.7-3.71-.4-.26-.91-.21-1.23.13l-3.53,3.53c-.34.35-.88.39-1.27.1l-20.14-14.59c-.35-.25-.82-.25-1.15,0l-9.21,6.67-8.06,5.83c-.45-.06-1.06.93-1.69.56-.61-.3-1.83-.45-2.58-.61.61.7,1.35,1.21,2.08,1.65l-.45.34c-.53.38-1.25.31-1.7-.14-.09-.09-.21-.21-.31-.31.08-.05.14-.1.23-.16.61-.16.61-.3.16-.3-1.38,0-.61-2.3.91-2.44.45,0,.77-.31.77-.47-.16-1.06-3.05-1.06-4.11-1.36-.61-.31-.77-.16-.47.14.47.47.92,1.69-.3.92-.77-.45,2.13,2.28,1.52,2.13-.03.05-.05.1-.08.14-.62-.61-1.22-1.22-1.64-1.64-.34-.34-.84-.39-1.23-.13-2.93,1.91-14.92,9.69-23.88,15.52.14-1.26.13-1.7-.31-1.84-.61-.31.14-1.06-.47-1.67-.61-.92.77-1.22,0-2.3-.61-2.28,1.83-1.67,1.83-3.96q0-.77-.61-.61c-.61.16-.75,0-1.06-.92-.45-3.82,1.99-1.67,2.28-3.5.31-.77,0-2.44.61-2.89.16-.16,0-.16-.45-.16-1.06-.16-1.52-1.38-.77-2.6.31-.61.31-.91,0-1.22-.3-1.22,2.44,1.06,1.83,1.67,0,.31,0,.47.31.47.61-.31.3-1.99.77-2.14.3-.3.45-.3.14-.45-.45-.16,0-1.22-.3-1.06-1.38,4.27-3.05-5.49-.16-1.99.77,1.52,2.75-1.06.77-1.22-1.67-.31-1.99-2.75-.31-3.21.61-.16.92-.91.31-1.22-.16-1.22,2.44-5.64,2.89-1.67.61,1.99,1.38-1.38,1.83-1.83.17-.29.43-.78.73-1.27l19.57-.99-18.62-.43c.22-.25.43-.44.61-.52.47,0,.61-.3.61-.77.47-1.36,2.3-1.97,1.69-3.96-.16-1.22.14-1.53.75-.77.31.16.61,0,1.38-.92,2.6-4.11,3.66-2.74,5.96-5.18,1.19-1.69,1.93-2.27,2.63-2.74l26.19-1.31-23.94-.54c1.67-1.82,2.02-2.12,3.5-2.12,5.18-1.83,14.33-5.49,20.13-1.38,3.21,2.6,6.1.92,9.46,1.38,5.94.91,17.38,2.89,19.52,5.33,0,.31,1.83,1.06,3.21,1.53.62.23,1.57,1.12,2.52,2l-28.59.65,31.36,1.57c1.17.82,1.57,2.08,2.93,2.49,1.83.75.77,1.06,2.6,2.89,1.69,2.21,3.14,4.58,4.4,7.03l-16.09.36,16.66.84c1.73,3.63,3.02,7.46,3.87,11.28.31,5.49,1.69,8.24,1.08,12.2.45,1.22-.47,1.99-.31,3.66Z"/>
      <path class="st0" d="M347.79,442.88c0,.16-.31.47-.77.47-1.52.14-2.28,2.44-.91,2.44.45,0,.45.14-.16.3-.09.05-.16.1-.23.16-.42-.42-.9-.9-1.38-1.39.03-.04.05-.09.08-.14.61.16-2.28-2.58-1.52-2.13,1.22.77.77-.45.3-.92-.3-.3-.14-.45.47-.14,1.06.3,3.96.3,4.11,1.36Z"/>
      <path class="st0" d="M350.39,444.76l-2.19,1.6c-.73-.44-1.47-.95-2.08-1.65.75.16,1.97.31,2.58.61.62.38,1.23-.62,1.69-.56Z"/>
    </g>
  </g>
  <g>
    <path class="st0" d="M277.82,554.91l-8.11-24.06h2.61l7.6,22.65h-1.31l7.84-22.65h2.34l7.73,22.65h-1.24l7.66-22.65h2.44l-8.11,24.06h-2.68l-7.39-21.48h.69l-7.42,21.48h-2.65Z"/>
    <path class="st0" d="M305.45,554.91l11-24.06h2.51l11,24.06h-2.68l-10.1-22.58h1.03l-10.1,22.58h-2.65ZM309.78,548.48l.76-2.06h13.99l.76,2.06h-15.5Z"/>
    <path class="st0" d="M333.95,554.91v-24.06h2.1l16.6,20.9h-1.1v-20.9h2.51v24.06h-2.1l-16.57-20.9h1.1v20.9h-2.54Z"/>
    <path class="st0" d="M361.89,554.91v-24.06h9.8c2.57,0,4.82.51,6.75,1.53,1.94,1.02,3.44,2.44,4.52,4.25,1.08,1.81,1.62,3.9,1.62,6.26s-.54,4.45-1.62,6.25c-1.08,1.81-2.58,3.23-4.52,4.25s-4.19,1.53-6.75,1.53h-9.8ZM364.43,552.71h7.11c2.13,0,3.98-.42,5.55-1.25,1.57-.84,2.79-1.99,3.66-3.47.87-1.48,1.31-3.18,1.31-5.1s-.44-3.65-1.31-5.12c-.87-1.47-2.09-2.62-3.66-3.45-1.57-.84-3.42-1.25-5.55-1.25h-7.11v19.66Z"/>
    <path class="st0" d="M392.82,552.71h14.47v2.2h-17.01v-24.06h16.5v2.2h-13.95v19.66ZM392.55,541.6h12.72v2.17h-12.72v-2.17Z"/>
    <path class="st0" d="M413.27,554.91v-24.06h9.01c2.04,0,3.79.33,5.26.98,1.47.65,2.59,1.59,3.39,2.82.79,1.23,1.19,2.71,1.19,4.45s-.4,3.16-1.19,4.38c-.79,1.23-1.92,2.16-3.39,2.82-1.47.65-3.22.98-5.26.98h-7.6l1.13-1.17v8.8h-2.54ZM415.81,546.31l-1.13-1.2h7.53c2.41,0,4.23-.53,5.48-1.58,1.25-1.05,1.87-2.53,1.87-4.43s-.62-3.41-1.87-4.47c-1.25-1.05-3.08-1.58-5.48-1.58h-7.53l1.13-1.2v14.47ZM429.7,554.91l-6.19-8.73h2.75l6.22,8.73h-2.78Z"/>
    <path class="st0" d="M437.85,555.08c-.5,0-.93-.18-1.29-.55-.36-.37-.53-.81-.53-1.34s.18-1,.53-1.34c.35-.34.78-.52,1.29-.52s.93.17,1.29.52c.35.34.53.79.53,1.34s-.18.97-.53,1.34c-.36.37-.79.55-1.29.55Z"/>
    <path class="st0" d="M464.86,555.11c-1.81,0-3.48-.3-5.02-.91-1.54-.61-2.86-1.46-3.99-2.56-1.12-1.1-2-2.39-2.63-3.88-.63-1.49-.95-3.12-.95-4.88s.31-3.39.95-4.88c.63-1.49,1.51-2.78,2.65-3.88,1.13-1.1,2.47-1.95,4-2.56,1.53-.61,3.21-.91,5.02-.91s3.38.29,4.92.88c1.53.58,2.83,1.46,3.88,2.63l-1.62,1.62c-.99-1.01-2.07-1.74-3.27-2.18-1.19-.45-2.47-.67-3.85-.67-1.44,0-2.78.25-4.02.74-1.24.49-2.31,1.19-3.23,2.1-.92.91-1.63,1.96-2.15,3.16-.52,1.2-.77,2.53-.77,3.97s.26,2.77.77,3.97c.52,1.2,1.23,2.26,2.15,3.16.92.91,1.99,1.6,3.23,2.1s2.58.74,4.02.74,2.66-.23,3.85-.69c1.19-.46,2.28-1.19,3.27-2.2l1.62,1.62c-1.05,1.17-2.35,2.05-3.88,2.65-1.54.6-3.19.89-4.95.89Z"/>
    <path class="st0" d="M489.13,555.11c-1.81,0-3.49-.3-5.04-.91-1.55-.61-2.89-1.47-4.02-2.58-1.13-1.11-2.02-2.41-2.65-3.88-.63-1.48-.95-3.1-.95-4.86s.31-3.39.95-4.86c.63-1.48,1.51-2.77,2.65-3.88,1.13-1.11,2.47-1.97,4-2.58,1.53-.61,3.22-.91,5.05-.91s3.48.3,5.02.91c1.53.61,2.87,1.46,4,2.56,1.13,1.1,2.02,2.39,2.65,3.88.63,1.49.95,3.12.95,4.88s-.32,3.39-.95,4.88c-.63,1.49-1.51,2.78-2.65,3.88-1.13,1.1-2.47,1.95-4,2.56-1.54.61-3.21.91-5.02.91ZM489.13,552.84c1.44,0,2.78-.25,4-.74,1.23-.49,2.29-1.19,3.2-2.1.9-.9,1.61-1.96,2.11-3.16.5-1.2.76-2.53.76-3.97s-.25-2.77-.76-3.97c-.5-1.2-1.21-2.26-2.11-3.16-.91-.91-1.97-1.6-3.2-2.1-1.23-.49-2.56-.74-4-.74s-2.78.25-4.02.74c-1.24.49-2.31,1.19-3.23,2.1-.92.91-1.63,1.96-2.13,3.16-.5,1.2-.76,2.53-.76,3.97s.25,2.74.76,3.95c.5,1.22,1.21,2.27,2.13,3.18.92.91,1.99,1.6,3.23,2.1s2.58.74,4.02.74Z"/>
    <path class="st0" d="M507.45,554.91v-24.06h2.1l16.6,20.9h-1.1v-20.9h2.51v24.06h-2.1l-16.57-20.9h1.1v20.9h-2.54Z"/>
    <path class="st0" d="M535.39,554.91v-24.06h2.1l16.6,20.9h-1.1v-20.9h2.51v24.06h-2.1l-16.57-20.9h1.1v20.9h-2.54Z"/>
    <path class="st0" d="M565.87,552.71h14.47v2.2h-17.01v-24.06h16.5v2.2h-13.95v19.66ZM565.6,541.6h12.72v2.17h-12.72v-2.17Z"/>
    <path class="st0" d="M596.7,555.11c-1.81,0-3.48-.3-5.02-.91-1.54-.61-2.86-1.46-3.99-2.56-1.12-1.1-2-2.39-2.63-3.88-.63-1.49-.94-3.12-.94-4.88s.31-3.39.94-4.88c.63-1.49,1.51-2.78,2.65-3.88,1.13-1.1,2.47-1.95,4-2.56,1.53-.61,3.21-.91,5.02-.91s3.38.29,4.92.88c1.53.58,2.83,1.46,3.88,2.63l-1.62,1.62c-.99-1.01-2.07-1.74-3.27-2.18-1.19-.45-2.47-.67-3.85-.67-1.44,0-2.78.25-4.02.74-1.24.49-2.32,1.19-3.23,2.1-.92.91-1.63,1.96-2.15,3.16-.52,1.2-.77,2.53-.77,3.97s.26,2.77.77,3.97c.52,1.2,1.23,2.26,2.15,3.16.92.91,1.99,1.6,3.23,2.1,1.24.49,2.58.74,4.02.74s2.66-.23,3.85-.69c1.19-.46,2.28-1.19,3.27-2.2l1.62,1.62c-1.05,1.17-2.35,2.05-3.88,2.65-1.54.6-3.19.89-4.95.89Z"/>
    <path class="st0" d="M615.33,554.91v-21.86h-8.45v-2.2h19.45v2.2h-8.45v21.86h-2.54Z"/>
    <path class="st0" d="M629.05,555.08c-.5,0-.93-.18-1.29-.55-.36-.37-.53-.81-.53-1.34s.18-1,.53-1.34c.35-.34.78-.52,1.29-.52s.93.17,1.29.52c.35.34.53.79.53,1.34s-.18.97-.53,1.34c-.36.37-.79.55-1.29.55Z"/>
    <path class="st0" d="M645.61,554.91v-24.06h10.38c2.68,0,4.76.54,6.24,1.62,1.48,1.08,2.22,2.6,2.22,4.57,0,1.31-.3,2.41-.91,3.3-.61.89-1.43,1.57-2.47,2.03-1.04.46-2.18.69-3.42.69l.58-.82c1.53,0,2.86.23,3.97.7,1.11.47,1.98,1.17,2.59,2.1.62.93.93,2.08.93,3.45,0,2.04-.75,3.62-2.25,4.74-1.5,1.12-3.76,1.68-6.79,1.68h-11.07ZM648.16,552.81h8.49c2.11,0,3.72-.36,4.85-1.08s1.68-1.87,1.68-3.45-.56-2.7-1.68-3.42c-1.12-.72-2.74-1.08-4.85-1.08h-8.76v-2.1h7.94c1.92,0,3.42-.37,4.49-1.1,1.07-.73,1.6-1.82,1.6-3.27s-.53-2.56-1.6-3.28c-1.07-.72-2.56-1.08-4.49-1.08h-7.67v19.87Z"/>
    <path class="st0" d="M674.07,552.71h14.47v2.2h-17.01v-24.06h16.5v2.2h-13.95v19.66ZM673.8,541.6h12.72v2.17h-12.72v-2.17Z"/>
    <path class="st0" d="M694.52,554.91v-24.06h2.54v21.86h13.47v2.2h-16.02Z"/>
    <path class="st0" d="M724.8,555.11c-1.81,0-3.49-.3-5.03-.91-1.55-.61-2.89-1.47-4.02-2.58-1.13-1.11-2.02-2.41-2.65-3.88-.63-1.48-.94-3.1-.94-4.86s.31-3.39.94-4.86c.63-1.48,1.51-2.77,2.65-3.88,1.13-1.11,2.47-1.97,4-2.58,1.53-.61,3.22-.91,5.05-.91s3.48.3,5.02.91c1.53.61,2.87,1.46,4,2.56,1.13,1.1,2.02,2.39,2.65,3.88.63,1.49.95,3.12.95,4.88s-.32,3.39-.95,4.88c-.63,1.49-1.51,2.78-2.65,3.88-1.13,1.1-2.47,1.95-4,2.56-1.53.61-3.21.91-5.02.91ZM724.8,552.84c1.44,0,2.78-.25,4-.74s2.29-1.19,3.2-2.1c.91-.9,1.61-1.96,2.11-3.16.5-1.2.76-2.53.76-3.97s-.25-2.77-.76-3.97c-.5-1.2-1.21-2.26-2.11-3.16s-1.97-1.6-3.2-2.1c-1.23-.49-2.56-.74-4-.74s-2.78.25-4.02.74c-1.24.49-2.32,1.19-3.23,2.1-.92.91-1.63,1.96-2.13,3.16-.5,1.2-.76,2.53-.76,3.97s.25,2.74.76,3.95c.5,1.22,1.21,2.27,2.13,3.18.92.91,1.99,1.6,3.23,2.1,1.24.49,2.58.74,4.02.74Z"/>
    <path class="st0" d="M743.12,554.91v-24.06h2.1l16.6,20.9h-1.1v-20.9h2.51v24.06h-2.1l-16.57-20.9h1.1v20.9h-2.54Z"/>
    <path class="st0" d="M781.61,555.11c-1.83,0-3.52-.3-5.07-.91-1.55-.61-2.89-1.46-4.02-2.56-1.13-1.1-2.02-2.39-2.65-3.88-.63-1.49-.94-3.12-.94-4.88s.31-3.39.94-4.88c.63-1.49,1.52-2.78,2.66-3.88,1.15-1.1,2.49-1.95,4.04-2.56,1.55-.61,3.24-.91,5.07-.91s3.51.29,5.04.86c1.52.57,2.82,1.44,3.9,2.61l-1.58,1.62c-1.01-1.01-2.12-1.73-3.33-2.16s-2.52-.65-3.92-.65c-1.49,0-2.86.25-4.11.74-1.25.49-2.34,1.19-3.27,2.1s-1.65,1.96-2.16,3.16c-.52,1.2-.77,2.53-.77,3.97s.26,2.74.77,3.95c.52,1.22,1.24,2.27,2.16,3.18.93.91,2.02,1.6,3.27,2.1s2.61.74,4.07.74c1.37,0,2.68-.21,3.9-.62,1.23-.41,2.35-1.11,3.39-2.1l1.44,1.92c-1.15,1.01-2.49,1.77-4.02,2.29-1.54.52-3.14.77-4.81.77ZM788.01,551.74v-8.87h2.44v9.18l-2.44-.31Z"/>
  </g>
</svg>